<svg width="368" height="368" viewBox="0 0 368 368" fill="none" xmlns="http://www.w3.org/2000/svg">
<circle cx="184" cy="184" r="178" stroke="white" stroke-width="12"/>
<path d="M75.3526 113.196L75 235.918L184.321 300.099V263.777L107.444 220.754V130.829L75.3526 113.196Z" fill="white"/>
<path opacity="0.95" d="M110.264 97.3281L143.06 113.903L107.442 130.83L75.3516 113.197L110.264 97.3281Z" fill="white"/>
<path opacity="0.95" d="M177.266 131.887L216.057 151.988L184.319 172.089L144.117 150.224L177.266 131.887Z" fill="white"/>
<path opacity="0.7" d="M144.119 150.225L216.059 110.376L260.492 133.298L293.641 115.313L182.557 67L151.877 79.6953L185.026 94.5065L107.443 130.829L144.119 150.225Z" fill="white"/>
<path opacity="0.65" d="M107.443 130.83L144.119 150.226L143.766 240.856L107.443 220.755V130.478V130.83Z" fill="white"/>
<path opacity="0.8" d="M144.119 150.226L184.321 172.09V263.778L143.767 240.856L144.119 150.226Z" fill="white"/>
<path opacity="0.5" d="M184.319 172.088L216.058 151.987L260.139 198.889V133.649L293.64 115.312L293.993 235.564L258.728 257.076L220.289 213.7L218.879 277.529L184.319 300.099V172.088Z" fill="white"/>
<path d="M216.061 110.375V151.987L260.847 200.3L260.494 133.297L216.061 110.375Z" fill="white"/>
<path d="M220.292 213.699L219.939 234.505L258.731 257.075L220.292 213.699Z" fill="white"/>
<path d="M151.876 79.6953L152.934 109.67L185.025 94.5065L151.876 79.6953Z" fill="white"/>
</svg>
